<?xml version="1.0" standalone="no"?>
<!DOCTYPE svg PUBLIC "-//W3C//DTD SVG 20010904//EN" "http://www.w3.org/TR/2001/REC-SVG-20010904/DTD/svg10.dtd">
<svg version="1.0" xmlns="http://www.w3.org/2000/svg" 
  viewBox="0 0 998.000000 998.000000" preserveAspectRatio="xMidYMid meet">

  <g transform="translate(0.000000,998.000000) scale(0.100000,-0.100000)" fill="#000000" stroke="none">
    <path d="M40 8980 c0 -550 2 -1000 5 -1000 18 0 338 136 510 218 473 223 788
408 1905 1117 307 195 701 432 880 530 69 38 152 83 185 102 l60 33 -1772 0
-1773 0 0 -1000z" />
    <path d="M4902 9973 c2 -5 18 -37 36 -72 89 -171 145 -603 122 -956 -40 -648
-234 -1266 -713 -2280 -46 -99 -207 -434 -357 -745 -498 -1033 -761 -1604
-954 -2073 -75 -181 -86 -217 -86 -268 0 -32 2 -59 5 -59 3 0 67 41 143 92
360 241 628 451 1237 973 766 656 1177 981 2455 1945 752 567 960 726 1590
1215 673 523 992 768 1338 1030 l262 198 0 504 0 503 -2541 0 c-1397 0 -2539
-3 -2537 -7z" />
    <path d="M3665 8538 c-225 -124 -520 -305 -1130 -693 -781 -497 -1087 -676
-1510 -885 -258 -128 -476 -223 -620 -273 -78 -26 -105 -31 -197 -31 l-108 -1
0 -3327 0 -3328 4940 0 4940 0 0 3651 c0 2917 -3 3649 -12 3643 -19 -11 -281
-214 -1213 -939 -467 -364 -1059 -823 -1315 -1020 -1265 -976 -1696 -1316
-2370 -1870 -748 -615 -1147 -915 -1542 -1158 -521 -322 -1046 -539 -1518
-628 -280 -53 -512 11 -691 190 -84 84 -126 151 -161 256 -19 58 -23 91 -23
190 1 107 5 135 38 260 234 870 552 1677 1242 3155 244 524 314 665 528 1065
385 723 576 1145 683 1518 29 102 64 238 60 237 0 0 -10 -6 -21 -12z" />
  </g>
</svg>
